<svg xmlns="http://www.w3.org/2000/svg" xmlns:xlink="http://www.w3.org/1999/xlink" version="1.1" data-diagram-type="SEQUENCE" style="width:120px;height:130px;background:#FFFFFF;" width="120px" height="130px" viewBox="0 0 120 130" zoomAndPan="magnify" preserveAspectRatio="none" contentStyleType="text/css"><?plantuml 1.2026.7beta11?><defs/><g font-family="sans-serif" lengthAdjust="spacing"><g><title>Bob</title><rect x="27.028" y="41.297" width="8" height="47.133" fill="#000" fill-opacity="0"/><line x1="30.528" y1="41.297" x2="30.528" y2="88.43" style="stroke:#181818;stroke-width:0.5;stroke-dasharray:5,5;"/></g><g><title>Alice</title><rect x="82.443" y="41.297" width="8" height="47.133" fill="#000" fill-opacity="0"/><line x1="85.943" y1="41.297" x2="85.943" y2="88.43" style="stroke:#181818;stroke-width:0.5;stroke-dasharray:5,5;"/></g><rect x="10" y="10" width="41.057" height="30.297" fill="#E2E2F0" style="stroke:#181818;stroke-width:0.5;" rx="2.5" ry="2.5"/><text x="17" y="29.995" fill="#000" font-size="14" textLength="27.057">Bob</text><rect x="62.109" y="10" width="47.667" height="30.297" fill="#E2E2F0" style="stroke:#181818;stroke-width:0.5;" rx="2.5" ry="2.5"/><text x="69.109" y="29.995" fill="#000" font-size="14" textLength="33.667">Alice</text><rect x="10" y="88.43" width="41.057" height="30.297" fill="#E2E2F0" style="stroke:#181818;stroke-width:0.5;" rx="2.5" ry="2.5"/><text x="17" y="108.425" fill="#000" font-size="14" textLength="27.057">Bob</text><rect x="62.109" y="88.43" width="47.667" height="30.297" fill="#E2E2F0" style="stroke:#181818;stroke-width:0.5;" rx="2.5" ry="2.5"/><text x="69.109" y="108.425" fill="#000" font-size="14" textLength="33.667">Alice</text><polygon points="73.943,66.43,83.943,70.43,73.943,74.43,77.943,70.43" fill="#181818" style="stroke:#181818;stroke-width:1;stroke-linejoin:miter;stroke-miterlimit:10;"/><line x1="30.528" y1="70.43" x2="79.943" y2="70.43" style="stroke:#181818;stroke-width:1;"/><text x="37.528" y="65.364" fill="#000" font-size="13" textLength="31.415">hello</text><?plantuml-src SyfFKj2rKt3CoKnELR1Io4ZDoSa70000?></g></svg>